<svg width="251" height="251" viewBox="0 0 251 251" fill="none" xmlns="http://www.w3.org/2000/svg">
<g style="mix-blend-mode:hard-light" filter="url(#filter0_f_14_989)">
<mask id="path-1-inside-1_14_989" fill="white">
<path d="M191.004 130.954C191.004 149.121 176.276 163.848 158.109 163.848C139.942 163.848 125.214 149.121 125.214 130.954C125.214 112.786 139.942 98.0589 158.109 98.0589C176.276 98.0589 191.004 112.786 191.004 130.954ZM135.083 130.954C135.083 143.671 145.392 153.98 158.109 153.98C170.826 153.98 181.135 143.671 181.135 130.954C181.135 118.236 170.826 107.927 158.109 107.927C145.392 107.927 135.083 118.236 135.083 130.954Z"/>
</mask>
<path d="M191.004 130.954C191.004 149.121 176.276 163.848 158.109 163.848C139.942 163.848 125.214 149.121 125.214 130.954C125.214 112.786 139.942 98.0589 158.109 98.0589C176.276 98.0589 191.004 112.786 191.004 130.954ZM135.083 130.954C135.083 143.671 145.392 153.98 158.109 153.98C170.826 153.98 181.135 143.671 181.135 130.954C181.135 118.236 170.826 107.927 158.109 107.927C145.392 107.927 135.083 118.236 135.083 130.954Z" stroke="#0094FF" stroke-width="3.5636" mask="url(#path-1-inside-1_14_989)"/>
</g>
<g style="mix-blend-mode:hard-light" filter="url(#filter1_f_14_989)">
<mask id="path-2-inside-2_14_989" fill="white">
<path d="M191.004 130.954C191.004 149.121 176.276 163.848 158.109 163.848C139.942 163.848 125.214 149.121 125.214 130.954C125.214 112.786 139.942 98.0589 158.109 98.0589C176.276 98.0589 191.004 112.786 191.004 130.954ZM135.083 130.954C135.083 143.671 145.392 153.98 158.109 153.98C170.826 153.98 181.135 143.671 181.135 130.954C181.135 118.236 170.826 107.927 158.109 107.927C145.392 107.927 135.083 118.236 135.083 130.954Z"/>
</mask>
<path d="M191.004 130.954C191.004 149.121 176.276 163.848 158.109 163.848C139.942 163.848 125.214 149.121 125.214 130.954C125.214 112.786 139.942 98.0589 158.109 98.0589C176.276 98.0589 191.004 112.786 191.004 130.954ZM135.083 130.954C135.083 143.671 145.392 153.98 158.109 153.98C170.826 153.98 181.135 143.671 181.135 130.954C181.135 118.236 170.826 107.927 158.109 107.927C145.392 107.927 135.083 118.236 135.083 130.954Z" stroke="#0094FF" stroke-width="4.66009" mask="url(#path-2-inside-2_14_989)"/>
</g>
<g style="mix-blend-mode:hard-light" filter="url(#filter2_ddi_14_989)">
<mask id="path-3-inside-3_14_989" fill="white">
<path d="M191.004 130.954C191.004 149.121 176.276 163.848 158.109 163.848C139.942 163.848 125.214 149.121 125.214 130.954C125.214 112.786 139.942 98.0589 158.109 98.0589C176.276 98.0589 191.004 112.786 191.004 130.954ZM135.083 130.954C135.083 143.671 145.392 153.98 158.109 153.98C170.826 153.98 181.135 143.671 181.135 130.954C181.135 118.236 170.826 107.927 158.109 107.927C145.392 107.927 135.083 118.236 135.083 130.954Z"/>
</mask>
<path d="M191.004 130.954C191.004 149.121 176.276 163.848 158.109 163.848C139.942 163.848 125.214 149.121 125.214 130.954C125.214 112.786 139.942 98.0589 158.109 98.0589C176.276 98.0589 191.004 112.786 191.004 130.954ZM135.083 130.954C135.083 143.671 145.392 153.98 158.109 153.98C170.826 153.98 181.135 143.671 181.135 130.954C181.135 118.236 170.826 107.927 158.109 107.927C145.392 107.927 135.083 118.236 135.083 130.954Z" stroke="#00B3FF" stroke-opacity="0.2" stroke-width="3.5636" mask="url(#path-3-inside-3_14_989)"/>
</g>
<g filter="url(#filter3_f_14_989)">
<mask id="path-4-inside-4_14_989" fill="white">
<path d="M191.004 130.954C191.004 149.121 176.276 163.848 158.109 163.848C139.942 163.848 125.214 149.121 125.214 130.954C125.214 112.786 139.942 98.0589 158.109 98.0589C176.276 98.0589 191.004 112.786 191.004 130.954ZM135.083 130.954C135.083 143.671 145.392 153.98 158.109 153.98C170.826 153.98 181.135 143.671 181.135 130.954C181.135 118.236 170.826 107.927 158.109 107.927C145.392 107.927 135.083 118.236 135.083 130.954Z"/>
</mask>
<path d="M191.004 130.954C191.004 149.121 176.276 163.848 158.109 163.848C139.942 163.848 125.214 149.121 125.214 130.954C125.214 112.786 139.942 98.0589 158.109 98.0589C176.276 98.0589 191.004 112.786 191.004 130.954ZM135.083 130.954C135.083 143.671 145.392 153.98 158.109 153.98C170.826 153.98 181.135 143.671 181.135 130.954C181.135 118.236 170.826 107.927 158.109 107.927C145.392 107.927 135.083 118.236 135.083 130.954Z" stroke="#82D9FF" stroke-width="2.19298" mask="url(#path-4-inside-4_14_989)"/>
</g>
<g filter="url(#filter4_f_14_989)">
<mask id="path-5-inside-5_14_989" fill="white">
<path d="M191.004 130.954C191.004 149.121 176.276 163.848 158.109 163.848C139.942 163.848 125.214 149.121 125.214 130.954C125.214 112.786 139.942 98.0589 158.109 98.0589C176.276 98.0589 191.004 112.786 191.004 130.954ZM135.083 130.954C135.083 143.671 145.392 153.98 158.109 153.98C170.826 153.98 181.135 143.671 181.135 130.954C181.135 118.236 170.826 107.927 158.109 107.927C145.392 107.927 135.083 118.236 135.083 130.954Z"/>
</mask>
<path d="M191.004 130.954C191.004 149.121 176.276 163.848 158.109 163.848C139.942 163.848 125.214 149.121 125.214 130.954C125.214 112.786 139.942 98.0589 158.109 98.0589C176.276 98.0589 191.004 112.786 191.004 130.954ZM135.083 130.954C135.083 143.671 145.392 153.98 158.109 153.98C170.826 153.98 181.135 143.671 181.135 130.954C181.135 118.236 170.826 107.927 158.109 107.927C145.392 107.927 135.083 118.236 135.083 130.954Z" stroke="white" stroke-width="1.09649" mask="url(#path-5-inside-5_14_989)"/>
</g>
<g style="mix-blend-mode:hard-light" filter="url(#filter5_f_14_989)">
<path d="M92.9495 139.839L92.3196 139.209L91.6896 139.839L70.2806 161.248C68.001 163.527 64.305 163.527 62.0254 161.248C59.7458 158.968 59.7458 155.272 62.0254 152.993L83.4344 131.583L84.0644 130.954L83.4344 130.324L62.0255 108.915C59.7459 106.635 59.7459 102.939 62.0255 100.659C64.3051 98.3798 68.0011 98.3799 70.2807 100.659L91.6896 122.068L92.3196 122.698L92.9495 122.068L114.358 100.659L113.737 100.038L114.358 100.659C116.638 98.3799 120.334 98.3799 122.614 100.659C124.893 102.939 124.893 106.635 122.614 108.915L101.205 130.324L100.575 130.954L101.205 131.583L122.614 152.993C124.893 155.272 124.893 158.968 122.614 161.248C120.334 163.527 116.638 163.527 114.359 161.248L92.9495 139.839Z" stroke="#FF5C00" stroke-width="1.7818"/>
</g>
<g style="mix-blend-mode:hard-light" filter="url(#filter6_f_14_989)">
<path d="M93.1434 139.645L92.3196 138.821L91.4958 139.645L70.0868 161.054C67.9142 163.226 64.3918 163.226 62.2193 161.054C60.0467 158.881 60.0467 155.359 62.2193 153.186L83.6283 131.777L84.4521 130.954L83.6283 130.13L62.2193 108.721C60.0468 106.548 60.0468 103.026 62.2193 100.853C64.3919 98.6807 67.9143 98.6807 70.0869 100.853L91.4958 122.262L92.3196 123.086L93.1434 122.262L114.552 100.853C116.725 98.6807 120.247 98.6807 122.42 100.853C124.592 103.026 124.592 106.548 122.42 108.721L101.011 130.13L100.187 130.954L101.011 131.777L122.42 153.186C124.592 155.359 124.592 158.881 122.42 161.054C120.247 163.226 116.725 163.226 114.552 161.054L93.1434 139.645Z" stroke="#FF0000" stroke-width="2.33004"/>
</g>
<g style="mix-blend-mode:hard-light" filter="url(#filter7_ddi_14_989)">
<path d="M92.9495 139.839L92.3196 139.209L91.6896 139.839L70.2806 161.248C68.001 163.527 64.305 163.527 62.0254 161.248C59.7458 158.968 59.7458 155.272 62.0254 152.993L83.4344 131.583L84.0644 130.954L83.4344 130.324L62.0255 108.915C59.7459 106.635 59.7459 102.939 62.0255 100.659C64.3051 98.3798 68.0011 98.3799 70.2807 100.659L91.6896 122.068L92.3196 122.698L92.9495 122.068L114.358 100.659L113.737 100.038L114.358 100.659C116.638 98.3799 120.334 98.3799 122.614 100.659C124.893 102.939 124.893 106.635 122.614 108.915L101.205 130.324L100.575 130.954L101.205 131.583L122.614 152.993C124.893 155.272 124.893 158.968 122.614 161.248C120.334 163.527 116.638 163.527 114.359 161.248L92.9495 139.839Z" stroke="#FF0000" stroke-opacity="0.2" stroke-width="1.7818"/>
</g>
<g filter="url(#filter8_f_14_989)">
<path d="M92.7072 140.081L92.3196 139.693L91.9319 140.081L70.5229 161.49C68.1095 163.903 64.1965 163.903 61.7831 161.49C59.3697 159.077 59.3697 155.164 61.7831 152.75L83.1921 131.341L83.5798 130.954L83.1921 130.566L61.7832 109.157C59.3698 106.744 59.3698 102.831 61.7832 100.417C64.1966 98.0037 68.1096 98.0037 70.523 100.417L91.9319 121.826L92.3196 122.214L92.7072 121.826L114.116 100.417C116.53 98.0037 120.442 98.0037 122.856 100.417C125.269 102.831 125.269 106.744 122.856 109.157L101.447 130.566L101.059 130.954L101.447 131.341L122.856 152.75C125.269 155.164 125.269 159.077 122.856 161.49C120.443 163.903 116.53 163.903 114.116 161.49L92.7072 140.081Z" stroke="#FF9983" stroke-width="1.09649"/>
</g>
<g filter="url(#filter9_f_14_989)">
<path d="M92.5134 140.275L92.3196 140.081L92.1257 140.275L70.7167 161.684C68.1963 164.204 64.1098 164.204 61.5893 161.684C59.0688 159.163 59.0688 155.077 61.5893 152.556L82.9983 131.147L83.1921 130.954L82.9983 130.76L61.5894 109.351C59.0689 106.83 59.0689 102.744 61.5894 100.223C64.1099 97.7029 68.1963 97.7029 70.7168 100.223L92.1257 121.632L92.3196 121.826L92.5134 121.632L113.922 100.223C116.443 97.7029 120.529 97.7029 123.05 100.223C125.57 102.744 125.57 106.83 123.05 109.351L101.641 130.76L101.447 130.954L101.641 131.147L123.05 152.556C125.57 155.077 125.57 159.163 123.05 161.684C120.529 164.204 116.443 164.204 113.922 161.684L92.5134 140.275Z" stroke="white" stroke-width="0.548245"/>
</g>
<rect x="25.2143" y="25.6904" width="200" height="200" rx="26.3891" fill="black"/>
<g style="mix-blend-mode:hard-light" filter="url(#filter10_f_14_989)">
<rect x="27.9226" y="28.3988" width="194.583" height="194.583" rx="23.6807" stroke="#00A8A8" stroke-width="5.41667"/>
</g>
<g style="mix-blend-mode:hard-light" filter="url(#filter11_f_14_989)">
<rect x="28.756" y="29.2321" width="192.917" height="192.917" rx="22.8474" stroke="#00A8A8" stroke-width="7.08333"/>
</g>
<g style="mix-blend-mode:hard-light" filter="url(#filter12_ddi_14_989)">
<rect x="27.9226" y="28.3988" width="194.583" height="194.583" rx="23.6807" stroke="#33E9C6" stroke-opacity="0.2" stroke-width="5.41667"/>
</g>
<g filter="url(#filter13_f_14_989)">
<rect x="26.881" y="27.3571" width="196.667" height="196.667" rx="24.7224" stroke="#33E9E9" stroke-width="3.33333"/>
</g>
<g filter="url(#filter14_f_14_989)">
<rect x="26.0476" y="26.5238" width="198.333" height="198.333" rx="25.5557" stroke="white" stroke-width="1.66667"/>
</g>
<defs>
<filter id="filter0_f_14_989" x="116.991" y="89.8352" width="82.2368" height="82.2368" filterUnits="userSpaceOnUse" color-interpolation-filters="sRGB">
<feFlood flood-opacity="0" result="BackgroundImageFix"/>
<feBlend mode="normal" in="SourceGraphic" in2="BackgroundImageFix" result="shape"/>
<feGaussianBlur stdDeviation="4.11184" result="effect1_foregroundBlur_14_989"/>
</filter>
<filter id="filter1_f_14_989" x="122.473" y="95.3176" width="71.2719" height="71.2719" filterUnits="userSpaceOnUse" color-interpolation-filters="sRGB">
<feFlood flood-opacity="0" result="BackgroundImageFix"/>
<feBlend mode="normal" in="SourceGraphic" in2="BackgroundImageFix" result="shape"/>
<feGaussianBlur stdDeviation="1.37061" result="effect1_foregroundBlur_14_989"/>
</filter>
<filter id="filter2_ddi_14_989" x="121.651" y="97.2365" width="72.9166" height="72.9166" filterUnits="userSpaceOnUse" color-interpolation-filters="sRGB">
<feFlood flood-opacity="0" result="BackgroundImageFix"/>
<feColorMatrix in="SourceAlpha" type="matrix" values="0 0 0 0 0 0 0 0 0 0 0 0 0 0 0 0 0 0 127 0" result="hardAlpha"/>
<feOffset dy="1.7818"/>
<feGaussianBlur stdDeviation="0.685307"/>
<feColorMatrix type="matrix" values="0 0 0 0 0 0 0 0 0 0.051 0 0 0 0 0.082 0 0 0 0.7 0"/>
<feBlend mode="multiply" in2="BackgroundImageFix" result="effect1_dropShadow_14_989"/>
<feColorMatrix in="SourceAlpha" type="matrix" values="0 0 0 0 0 0 0 0 0 0 0 0 0 0 0 0 0 0 127 0" result="hardAlpha"/>
<feOffset dy="2.74123"/>
<feGaussianBlur stdDeviation="1.7818"/>
<feColorMatrix type="matrix" values="0 0 0 0 0 0 0 0 0 0.4 0 0 0 0 1 0 0 0 1 0"/>
<feBlend mode="color-dodge" in2="effect1_dropShadow_14_989" result="effect2_dropShadow_14_989"/>
<feBlend mode="normal" in="SourceGraphic" in2="effect2_dropShadow_14_989" result="shape"/>
<feColorMatrix in="SourceAlpha" type="matrix" values="0 0 0 0 0 0 0 0 0 0 0 0 0 0 0 0 0 0 127 0" result="hardAlpha"/>
<feOffset dx="-0.17818" dy="0.35636"/>
<feGaussianBlur stdDeviation="0.0890899"/>
<feComposite in2="hardAlpha" operator="arithmetic" k2="-1" k3="1"/>
<feColorMatrix type="matrix" values="0 0 0 0 1 0 0 0 0 1 0 0 0 0 1 0 0 0 0.5 0"/>
<feBlend mode="normal" in2="shape" result="effect3_innerShadow_14_989"/>
</filter>
<filter id="filter3_f_14_989" x="124.94" y="97.7847" width="66.3377" height="66.3377" filterUnits="userSpaceOnUse" color-interpolation-filters="sRGB">
<feFlood flood-opacity="0" result="BackgroundImageFix"/>
<feBlend mode="normal" in="SourceGraphic" in2="BackgroundImageFix" result="shape"/>
<feGaussianBlur stdDeviation="0.137061" result="effect1_foregroundBlur_14_989"/>
</filter>
<filter id="filter4_f_14_989" x="125.032" y="97.8761" width="66.155" height="66.1549" filterUnits="userSpaceOnUse" color-interpolation-filters="sRGB">
<feFlood flood-opacity="0" result="BackgroundImageFix"/>
<feBlend mode="normal" in="SourceGraphic" in2="BackgroundImageFix" result="shape"/>
<feGaussianBlur stdDeviation="0.0913742" result="effect1_foregroundBlur_14_989"/>
</filter>
<filter id="filter5_f_14_989" x="51.2011" y="89.8352" width="82.2368" height="82.2368" filterUnits="userSpaceOnUse" color-interpolation-filters="sRGB">
<feFlood flood-opacity="0" result="BackgroundImageFix"/>
<feBlend mode="normal" in="SourceGraphic" in2="BackgroundImageFix" result="shape"/>
<feGaussianBlur stdDeviation="4.11184" result="effect1_foregroundBlur_14_989"/>
</filter>
<filter id="filter6_f_14_989" x="56.6836" y="95.3176" width="71.2719" height="71.2719" filterUnits="userSpaceOnUse" color-interpolation-filters="sRGB">
<feFlood flood-opacity="0" result="BackgroundImageFix"/>
<feBlend mode="normal" in="SourceGraphic" in2="BackgroundImageFix" result="shape"/>
<feGaussianBlur stdDeviation="1.37061" result="effect1_foregroundBlur_14_989"/>
</filter>
<filter id="filter7_ddi_14_989" x="55.8612" y="97.2365" width="72.9167" height="72.9166" filterUnits="userSpaceOnUse" color-interpolation-filters="sRGB">
<feFlood flood-opacity="0" result="BackgroundImageFix"/>
<feColorMatrix in="SourceAlpha" type="matrix" values="0 0 0 0 0 0 0 0 0 0 0 0 0 0 0 0 0 0 127 0" result="hardAlpha"/>
<feOffset dy="1.7818"/>
<feGaussianBlur stdDeviation="0.685307"/>
<feColorMatrix type="matrix" values="0 0 0 0 0.15 0 0 0 0 0 0 0 0 0 0 0 0 0 0.7 0"/>
<feBlend mode="multiply" in2="BackgroundImageFix" result="effect1_dropShadow_14_989"/>
<feColorMatrix in="SourceAlpha" type="matrix" values="0 0 0 0 0 0 0 0 0 0 0 0 0 0 0 0 0 0 127 0" result="hardAlpha"/>
<feOffset dy="2.74123"/>
<feGaussianBlur stdDeviation="1.7818"/>
<feColorMatrix type="matrix" values="0 0 0 0 0.8 0 0 0 0 0.19 0 0 0 0 0.19 0 0 0 1 0"/>
<feBlend mode="color-dodge" in2="effect1_dropShadow_14_989" result="effect2_dropShadow_14_989"/>
<feBlend mode="normal" in="SourceGraphic" in2="effect2_dropShadow_14_989" result="shape"/>
<feColorMatrix in="SourceAlpha" type="matrix" values="0 0 0 0 0 0 0 0 0 0 0 0 0 0 0 0 0 0 127 0" result="hardAlpha"/>
<feOffset dx="-0.17818" dy="0.35636"/>
<feGaussianBlur stdDeviation="0.0890899"/>
<feComposite in2="hardAlpha" operator="arithmetic" k2="-1" k3="1"/>
<feColorMatrix type="matrix" values="0 0 0 0 1 0 0 0 0 1 0 0 0 0 1 0 0 0 0.5 0"/>
<feBlend mode="normal" in2="shape" result="effect3_innerShadow_14_989"/>
</filter>
<filter id="filter8_f_14_989" x="59.1507" y="97.7847" width="66.3377" height="66.3377" filterUnits="userSpaceOnUse" color-interpolation-filters="sRGB">
<feFlood flood-opacity="0" result="BackgroundImageFix"/>
<feBlend mode="normal" in="SourceGraphic" in2="BackgroundImageFix" result="shape"/>
<feGaussianBlur stdDeviation="0.137061" result="effect1_foregroundBlur_14_989"/>
</filter>
<filter id="filter9_f_14_989" x="59.2421" y="97.8761" width="66.155" height="66.1549" filterUnits="userSpaceOnUse" color-interpolation-filters="sRGB">
<feFlood flood-opacity="0" result="BackgroundImageFix"/>
<feBlend mode="normal" in="SourceGraphic" in2="BackgroundImageFix" result="shape"/>
<feGaussianBlur stdDeviation="0.0913742" result="effect1_foregroundBlur_14_989"/>
</filter>
<filter id="filter10_f_14_989" x="0.214294" y="0.69043" width="250" height="250" filterUnits="userSpaceOnUse" color-interpolation-filters="sRGB">
<feFlood flood-opacity="0" result="BackgroundImageFix"/>
<feBlend mode="normal" in="SourceGraphic" in2="BackgroundImageFix" result="shape"/>
<feGaussianBlur stdDeviation="12.5" result="effect1_foregroundBlur_14_989"/>
</filter>
<filter id="filter11_f_14_989" x="16.881" y="17.3571" width="216.667" height="216.667" filterUnits="userSpaceOnUse" color-interpolation-filters="sRGB">
<feFlood flood-opacity="0" result="BackgroundImageFix"/>
<feBlend mode="normal" in="SourceGraphic" in2="BackgroundImageFix" result="shape"/>
<feGaussianBlur stdDeviation="4.16667" result="effect1_foregroundBlur_14_989"/>
</filter>
<filter id="filter12_ddi_14_989" x="14.381" y="23.1904" width="221.667" height="221.667" filterUnits="userSpaceOnUse" color-interpolation-filters="sRGB">
<feFlood flood-opacity="0" result="BackgroundImageFix"/>
<feColorMatrix in="SourceAlpha" type="matrix" values="0 0 0 0 0 0 0 0 0 0 0 0 0 0 0 0 0 0 127 0" result="hardAlpha"/>
<feOffset dy="5.41667"/>
<feGaussianBlur stdDeviation="2.08333"/>
<feColorMatrix type="matrix" values="0 0 0 0 0 0 0 0 0 0.3 0 0 0 0 0.275 0 0 0 0.7 0"/>
<feBlend mode="multiply" in2="BackgroundImageFix" result="effect1_dropShadow_14_989"/>
<feColorMatrix in="SourceAlpha" type="matrix" values="0 0 0 0 0 0 0 0 0 0 0 0 0 0 0 0 0 0 127 0" result="hardAlpha"/>
<feOffset dy="8.33333"/>
<feGaussianBlur stdDeviation="5.41667"/>
<feColorMatrix type="matrix" values="0 0 0 0 0 0 0 0 0 0.6 0 0 0 0 0.6 0 0 0 1 0"/>
<feBlend mode="color-dodge" in2="effect1_dropShadow_14_989" result="effect2_dropShadow_14_989"/>
<feBlend mode="normal" in="SourceGraphic" in2="effect2_dropShadow_14_989" result="shape"/>
<feColorMatrix in="SourceAlpha" type="matrix" values="0 0 0 0 0 0 0 0 0 0 0 0 0 0 0 0 0 0 127 0" result="hardAlpha"/>
<feOffset dx="-0.541667" dy="1.08333"/>
<feGaussianBlur stdDeviation="0.270833"/>
<feComposite in2="hardAlpha" operator="arithmetic" k2="-1" k3="1"/>
<feColorMatrix type="matrix" values="0 0 0 0 1 0 0 0 0 1 0 0 0 0 1 0 0 0 0.5 0"/>
<feBlend mode="normal" in2="shape" result="effect3_innerShadow_14_989"/>
</filter>
<filter id="filter13_f_14_989" x="24.381" y="24.8571" width="201.667" height="201.667" filterUnits="userSpaceOnUse" color-interpolation-filters="sRGB">
<feFlood flood-opacity="0" result="BackgroundImageFix"/>
<feBlend mode="normal" in="SourceGraphic" in2="BackgroundImageFix" result="shape"/>
<feGaussianBlur stdDeviation="0.416667" result="effect1_foregroundBlur_14_989"/>
</filter>
<filter id="filter14_f_14_989" x="24.6587" y="25.1349" width="201.111" height="201.111" filterUnits="userSpaceOnUse" color-interpolation-filters="sRGB">
<feFlood flood-opacity="0" result="BackgroundImageFix"/>
<feBlend mode="normal" in="SourceGraphic" in2="BackgroundImageFix" result="shape"/>
<feGaussianBlur stdDeviation="0.277778" result="effect1_foregroundBlur_14_989"/>
</filter>
</defs>
</svg>
